<svg width="70" height="80" viewBox="0 0 70 80" fill="none" xmlns="http://www.w3.org/2000/svg">
<g clip-path="url(#clip0_25_311)">
<path d="M28.3686 27.3701H28.265C27.7388 29.7932 27.2126 32.8707 26.6284 35.2274L24.5154 43.8623H32.3792L30.1626 35.2274C29.5328 32.809 28.8989 29.7932 28.3686 27.3701Z" fill="#FF453C"/>
<path d="M65.616 0H4.27994C1.91416 0 0 2.19074 0 4.89835V75.1017C0 77.8045 1.91416 80 4.27994 80H65.6202C67.9818 80 69.9001 77.8045 69.9001 75.1017V4.89835C69.9001 2.19548 67.9818 0 65.616 0ZM36.2862 61.1938L33.5393 50.7474H23.3594L20.8238 61.1938H12.4876L23.3594 20.4943H33.908L44.9414 61.1938H36.2862ZM57.1473 61.1938H49.1219V31.6662H57.1473V61.1938ZM53.087 28.0434C50.5555 28.0434 48.865 25.9854 48.9147 23.4485C48.865 20.7883 50.5555 18.8062 53.145 18.8062C55.7262 18.8062 57.3628 20.7931 57.4125 23.4485C57.4125 25.9854 55.7262 28.0434 53.087 28.0434Z" fill="#FF453C"/>
</g>
<defs>
<clipPath id="clip0_25_311">
<rect width="69.9001" height="80" fill="white"/>
</clipPath>
</defs>
</svg>
