<svg width="46" height="80" viewBox="0 0 46 80" fill="none" xmlns="http://www.w3.org/2000/svg">
<path fill-rule="evenodd" clip-rule="evenodd" d="M0 39.9987C0 33.4106 4.66667 28.0699 10.4236 28.0699H20.8473V51.9287H10.4236C4.66678 51.9287 0 46.5873 0 39.9987ZM10.4236 23.8594H20.8473V0H10.4236C4.66681 0 0 5.34112 0 11.9297C0 18.5183 4.66678 23.8594 10.4236 23.8594ZM45.3732 11.9297C45.3732 18.5183 40.7065 23.8594 34.9497 23.8594H24.5262V0H34.9497C40.7065 0 45.3732 5.34112 45.3732 11.9297ZM24.5262 39.9987C24.5262 33.4106 29.1929 28.0699 34.9497 28.0699C40.7065 28.0699 45.3732 33.4106 45.3732 39.9987C45.3732 46.5873 40.7065 51.9287 34.9497 51.9287C29.1929 51.9287 24.5262 46.5873 24.5262 39.9987ZM10.4236 56.1392H20.8473V68.07C20.8473 74.6586 16.1804 80 10.4236 80C4.66681 80 0 74.6586 0 68.07C0 61.4815 4.66704 56.1392 10.4236 56.1392Z" fill="#FF453C"/>
</svg>
