<svg width="70" height="80" viewBox="0 0 70 80" fill="none" xmlns="http://www.w3.org/2000/svg">
<g clip-path="url(#clip0_25_356)">
<mask id="mask0_25_356" style="mask-type:luminance" maskUnits="userSpaceOnUse" x="0" y="0" width="70" height="80">
<path d="M0 0H69.8143V79.9017H0V0Z" fill="white"/>
</mask>
<g mask="url(#mask0_25_356)">
<path d="M68.499 36.3931L38.0164 1.50873C37.5992 1.03052 37.1036 0.651153 36.5582 0.392313C36.0127 0.133474 35.428 0.000244141 34.8375 0.000244141C34.247 0.000244141 33.6623 0.133474 33.1168 0.392313C32.5713 0.651153 32.0758 1.03052 31.6586 1.50873L25.328 8.75395L33.3559 17.9418C34.2997 17.5749 35.3144 17.5177 36.2852 17.7764C37.256 18.0352 38.1441 18.5997 38.8491 19.4061C39.5579 20.2185 40.053 21.2425 40.2777 22.3614C40.5025 23.4802 40.4479 24.6489 40.1203 25.734L47.8571 34.5896C48.8051 34.2126 49.8267 34.149 50.8047 34.4062C51.7828 34.6633 52.6777 35.2308 53.3869 36.0435C53.8836 36.612 54.2777 37.2869 54.5466 38.0297C54.8155 38.7725 54.9539 39.5686 54.9539 40.3727C54.9539 41.1767 54.8155 41.9728 54.5466 42.7156C54.2777 43.4584 53.8836 44.1333 53.3869 44.7018C52.3831 45.8501 51.022 46.4951 49.6027 46.4951C48.1835 46.4951 46.8224 45.8501 45.8186 44.7018C45.0715 43.8472 44.5622 42.7586 44.3551 41.5731C44.1479 40.3877 44.2522 39.1586 44.6547 38.0409L37.4367 29.7826V51.5192C38.1986 51.9499 38.8598 52.5821 39.3656 53.3636C39.8715 54.145 40.2073 55.0531 40.3455 56.0126C40.4836 56.9722 40.42 57.9556 40.1599 58.8815C39.8998 59.8073 39.4508 60.6489 38.8499 61.3366C38.3532 61.9051 37.7635 62.3562 37.1145 62.6639C36.4655 62.9716 35.7698 63.13 35.0673 63.13C34.3648 63.13 33.6692 62.9716 33.0202 62.6639C32.3711 62.3562 31.7814 61.9051 31.2847 61.3366C30.7878 60.7681 30.3936 60.0931 30.1247 59.3502C29.8558 58.6074 29.7174 57.8111 29.7174 57.007C29.7174 56.2029 29.8558 55.4066 30.1247 54.6638C30.3936 53.9209 30.7878 53.2459 31.2847 52.6774C31.7859 52.1025 32.382 51.6476 33.0383 51.3392V29.4026C32.3819 29.0959 31.7857 28.6421 31.2847 28.0679C30.5345 27.2081 30.0245 26.1126 29.8194 24.9205C29.6143 23.7283 29.7234 22.4933 30.1329 21.3722L22.2175 12.3131L1.31735 36.2296C0.899625 36.7075 0.56826 37.2749 0.342182 37.8994C0.116103 38.5239 -0.000259399 39.1932 -0.000259399 39.8692C-0.000259399 40.5451 0.116103 41.2145 0.342182 41.839C0.56826 42.4635 0.899625 43.0308 1.31735 43.5087L31.8006 78.3974C32.644 79.3617 33.7874 79.9034 34.9796 79.9034C36.1717 79.9034 37.3151 79.3617 38.1585 78.3974L68.499 43.6722C69.3413 42.7063 69.8144 41.3973 69.8144 40.0326C69.8144 38.668 69.3413 37.359 68.499 36.3931Z" fill="#FF453C"/>
</g>
</g>
<defs>
<clipPath id="clip0_25_356">
<rect width="69.9001" height="80" fill="white"/>
</clipPath>
</defs>
</svg>
