<svg width="67" height="80" viewBox="0 0 67 80" fill="none" xmlns="http://www.w3.org/2000/svg">
<path d="M62.4417 32.7368C63.1992 30.0431 63.4612 27.1895 63.2101 24.3666C62.9591 21.5438 62.2008 18.8167 60.9858 16.3675C59.1847 12.6656 56.4344 9.73474 53.1316 7.99742C49.8288 6.2601 46.1441 5.80611 42.6086 6.7009C40.6001 4.06278 38.039 2.09515 35.1826 0.995622C32.3262 -0.103905 29.2751 -0.296616 26.3356 0.436845C23.3962 1.17031 20.672 2.80412 18.4365 5.17418C16.2011 7.54425 14.5332 10.5671 13.6003 13.9392C11.2449 14.5095 9.01983 15.6668 7.07364 17.3338C5.12745 19.0009 3.50501 21.1392 2.31474 23.6058C0.494004 27.3016 -0.284168 31.5853 0.0927309 35.8376C0.46963 40.0899 1.98207 44.0906 4.41139 47.2611C3.65106 49.9535 3.38643 52.8067 3.6352 55.6296C3.88398 58.4525 4.64043 61.1802 5.85395 63.6301C7.6574 67.3333 10.41 70.2649 13.7152 72.0022C17.0203 73.7395 20.7073 74.1929 24.2447 73.297C25.8404 75.4189 27.8012 77.1143 29.996 78.2701C32.1909 79.426 34.5693 80.0156 36.9725 79.9997C40.5962 80.0036 44.1273 78.6478 47.0559 76.128C49.9846 73.6081 52.1594 70.0546 53.2663 65.9804C55.6214 65.4091 57.8462 64.2513 59.7922 62.5844C61.7383 60.9174 63.361 58.7795 64.5519 56.3134C66.3511 52.6231 67.1159 48.3555 66.7368 44.121C66.3578 39.8864 64.8544 35.9015 62.4417 32.7368ZM36.9725 74.7637C34.0047 74.7692 31.13 73.541 28.8524 71.2944L29.253 71.0264L42.7422 61.8324C43.0779 61.5999 43.3566 61.2683 43.551 60.8701C43.7453 60.472 43.8487 60.021 43.8508 59.5614V37.1051L49.5532 41.0005C49.5814 41.0173 49.6058 41.0418 49.6245 41.0719C49.6431 41.1021 49.6555 41.137 49.6605 41.1738V59.7824C49.6533 63.7532 48.3143 67.5588 45.9364 70.3666C43.5584 73.1743 40.3353 74.7553 36.9725 74.7637ZM9.70029 61.0124C8.21193 57.9778 7.67753 54.4207 8.19111 50.9668L8.59198 51.2508L22.0944 60.4447C22.4285 60.6762 22.8089 60.7983 23.1962 60.7983C23.5836 60.7983 23.964 60.6762 24.2981 60.4447L40.7923 49.2164V56.9911C40.7908 57.0314 40.7815 57.0707 40.7653 57.1062C40.7491 57.1417 40.7263 57.1724 40.6986 57.1961L27.0358 66.5004C24.12 68.4837 20.6568 69.0198 17.4066 67.9909C14.1563 66.9619 11.3847 64.4521 9.70029 61.0124ZM6.14782 26.3185C7.64651 23.2644 10.012 20.935 12.8256 19.7425V38.6665C12.8206 39.1237 12.9195 39.5741 13.1121 39.9707C13.3047 40.3674 13.584 40.6957 13.9207 40.9215L30.3348 52.1024L24.632 55.9974C24.6012 56.0168 24.5667 56.0269 24.5318 56.0269C24.4969 56.0269 24.4624 56.0168 24.4316 55.9974L10.7956 46.7091C7.88528 44.7172 5.76205 41.4446 4.89092 37.6081C4.01979 33.7715 4.47175 29.6837 6.14782 26.2398V26.3185ZM52.9993 39.1711L36.5318 27.8798L42.2213 23.9998C42.2522 23.9805 42.2866 23.9704 42.3215 23.9704C42.3565 23.9704 42.3909 23.9805 42.4218 23.9998L56.0577 33.3041C58.1426 34.7247 59.8423 36.8162 60.9583 39.3345C62.0743 41.8528 62.5606 44.694 62.3604 47.5265C62.1601 50.3589 61.2817 53.0656 59.8275 55.3306C58.3733 57.5956 56.4035 59.3254 54.148 60.3181V41.3941C54.1361 40.9377 54.024 40.4928 53.8226 40.103C53.6211 39.7132 53.3376 39.3923 52.9993 39.1711ZM58.6755 29.0942L58.2746 28.8102L44.799 19.5375C44.4629 19.3046 44.0802 19.1818 43.6904 19.1818C43.3007 19.1818 42.918 19.3046 42.5818 19.5375L26.1014 30.7655V22.9912C26.0979 22.9517 26.1035 22.9117 26.1176 22.8757C26.1317 22.8396 26.1538 22.8087 26.1816 22.7862L39.8175 13.4975C41.9074 12.0759 44.2969 11.3863 46.7066 11.5094C49.1162 11.6325 51.4464 12.5631 53.4245 14.1925C55.4027 15.8219 56.947 18.0826 57.8769 20.7103C58.8069 23.338 59.084 26.224 58.6758 29.0308L58.6755 29.0942ZM22.989 42.8765L17.2866 38.9971C17.258 38.9769 17.2336 38.9494 17.2151 38.9167C17.1966 38.8841 17.1843 38.847 17.1793 38.8081V20.2472C17.1824 17.3998 17.872 14.6123 19.1674 12.2105C20.4628 9.80883 22.3104 7.89218 24.4944 6.68469C26.6783 5.4772 29.1082 5.02877 31.5 5.39183C33.8918 5.75489 36.1467 6.91444 38.0009 8.73489L37.6001 9.00323L24.1112 18.1965C23.7754 18.429 23.4967 18.7606 23.3023 19.1588C23.108 19.557 23.0047 20.008 23.0026 20.4675L22.989 42.8765ZM26.0876 34.9918L33.433 29.9925L40.7923 34.9918V44.9898L33.4598 49.9888L26.1011 44.9898L26.0876 34.9918Z" fill="#FF453C"/>
</svg>
