<svg width="70" height="80" viewBox="0 0 70 80" fill="none" xmlns="http://www.w3.org/2000/svg">
<g clip-path="url(#clip0_25_325)">
<path d="M24.4194 22.8059C22.6508 22.8059 21.4504 23.0028 20.8262 23.2043V36.2148C21.5704 36.4071 22.4787 36.4713 23.7352 36.4713C28.3648 36.4713 31.2218 33.7922 31.2218 29.2768C31.2178 25.2285 28.7609 22.8059 24.4194 22.8059Z" fill="#FF453C"/>
<path d="M66.3339 0H4.99272C2.6279 0 0.711243 2.18902 0.711243 4.88637V75.0862C0.711243 77.7881 2.6279 79.9817 4.99272 79.9817H66.3339C68.6947 79.9817 70.6114 77.7881 70.6114 75.0862V4.89095C70.6114 2.18902 68.6947 0 66.3339 0ZM36.2995 39.4848C33.3345 42.6905 28.929 44.1285 23.7952 44.1285C22.6468 44.1285 21.6225 44.0644 20.8222 43.9315V59.6943H12.1912V16.207C14.8761 15.6895 18.6454 15.2957 23.9633 15.2957C29.3291 15.2957 33.1624 16.468 35.7273 18.8265C38.1962 21.0522 39.8487 24.7158 39.8487 29.0297C39.8487 33.3436 38.5883 36.9935 36.2995 39.4848ZM49.308 60.3446C45.6427 60.3446 42.3896 59.4379 40.2729 58.1235L41.8134 50.9978C43.414 52.1014 46.7311 53.4112 49.308 53.4112C51.9289 53.4112 53.0173 52.3671 53.0173 50.7276C53.0173 49.0973 52.161 48.3142 48.9079 47.0685C43.1379 44.8475 40.9051 41.2479 40.9611 37.4561C40.9611 31.5118 45.4187 26.9872 52.333 26.9872C55.5902 26.9872 58.5032 27.8436 60.2158 28.8191L58.6752 35.6884C57.4188 34.9007 55.022 33.8611 52.6171 33.8611C50.5084 33.8611 49.312 34.8412 49.312 36.4761C49.312 37.9781 50.3884 38.7612 53.8176 40.1397C59.1314 42.228 61.3642 45.3054 61.4162 50.004C61.4162 55.962 57.2948 60.3446 49.308 60.3446Z" fill="#FF453C"/>
</g>
<defs>
<clipPath id="clip0_25_325">
<rect width="69.9001" height="80" fill="white"/>
</clipPath>
</defs>
</svg>
