<svg width="64" height="80" viewBox="0 0 64 80" fill="none" xmlns="http://www.w3.org/2000/svg">
<path d="M58.5059 42.2611C57.8774 41.3284 57.1953 40.3955 56.4664 39.4661C56.9675 38.8006 57.4449 38.1339 57.8942 37.4673C62.5382 30.5758 63.8567 24.3241 61.6068 19.8642C59.357 15.4042 53.9678 13.5853 46.4303 14.7425C45.6357 14.8645 44.8246 15.0192 44.0006 15.203C43.7202 14.2647 43.4232 13.3558 43.1089 12.4814C40.216 4.43266 36.1447 0 31.645 0C27.1454 0 23.0741 4.43266 20.1813 12.4814C19.867 13.3558 19.5701 14.2647 19.2897 15.203C18.4656 15.0194 17.6544 14.8645 16.8599 14.7425C9.32329 13.5855 3.93334 15.4042 1.68343 19.8642C-0.566483 24.3242 0.752063 30.5758 5.39605 37.4673C5.84521 38.1339 6.32264 38.8006 6.82382 39.4661C6.09478 40.3955 5.41284 41.3283 4.78429 42.2611C0.1403 49.1527 -1.17825 55.4044 1.07166 59.8642C2.87937 63.4477 6.71296 65.3259 12.0596 65.3259C13.3674 65.3259 14.7668 65.2134 16.248 64.9859C17.2021 64.8394 18.1799 64.6462 19.1759 64.4111C19.4893 65.4867 19.8241 66.525 20.1813 67.5188C23.0741 75.5673 27.1454 80 31.645 80C36.1447 80 40.216 75.5673 43.1088 67.5186C43.4659 66.5248 43.8008 65.4866 44.1142 64.4109C45.1102 64.6461 46.088 64.8394 47.042 64.9858C48.5237 65.2133 49.9223 65.3258 51.2305 65.3258C56.5766 65.3258 60.411 63.4473 62.2184 59.8641C64.4685 55.4042 63.1499 49.1527 58.5059 42.2611ZM50.6418 19.0822C54.3855 19.0822 57.0316 20.1698 58.0598 22.2078C59.4051 24.8747 58.1626 29.3931 54.6509 34.6045C54.3163 35.1011 53.9639 35.598 53.597 36.0947C51.5438 33.8591 49.2326 31.6716 46.7181 29.5869C46.3708 26.1155 45.8486 22.7983 45.1657 19.7141C47.1704 19.2906 49.0111 19.0822 50.6418 19.0822ZM37.0821 51.2487C35.2411 52.4652 33.4241 53.5564 31.6463 54.5267C29.8674 53.5561 28.05 52.4659 26.208 51.2487C24.1758 49.9059 22.2311 48.4847 20.3963 47.0084C20.2423 44.7663 20.159 42.4267 20.159 40C20.159 37.2816 20.2632 34.672 20.4549 32.1872C22.091 30.9014 23.8097 29.6602 25.5961 28.4797C27.6494 27.123 29.6723 25.9239 31.6449 24.8728C33.6177 25.9239 35.6405 27.123 37.6939 28.4797C39.4804 29.6602 41.199 30.9014 42.8351 32.1872C43.0267 34.672 43.1309 37.2816 43.1309 40C43.1309 42.4267 43.0476 44.7663 42.8936 47.0084C41.059 48.4847 39.1143 49.9059 37.0821 51.2487ZM42.2689 53.1256C41.9945 55.1209 41.6617 57.0109 41.2794 58.7822C39.7603 58.277 38.1776 57.6658 36.5452 56.9456C37.4088 56.4208 38.2712 55.8756 39.13 55.3083C40.1995 54.6014 41.2462 53.8725 42.2689 53.1256ZM26.7447 56.9455C25.112 57.6658 23.5297 58.2764 22.0104 58.7816C21.6283 57.0106 21.2955 55.1208 21.021 53.1256C22.0437 53.8725 23.0905 54.6014 24.16 55.3081C25.0187 55.8756 25.881 56.4208 26.7447 56.9455ZM16.1133 43.2725C14.8163 42.0428 13.6011 40.79 12.4799 39.5255C13.6161 38.2853 14.8405 37.0588 16.1429 35.8561C16.0906 37.2241 16.0633 38.6066 16.0633 40C16.0633 41.0983 16.0807 42.1895 16.1133 43.2725ZM21.1344 26.0794C21.4097 24.2117 21.7368 22.4414 22.1075 20.7784C23.5627 21.2439 25.0792 21.8089 26.6439 22.4747C25.6093 23.0927 24.5763 23.7411 23.5484 24.4203C22.7301 24.9609 21.9255 25.5148 21.1344 26.0794ZM36.646 22.4745C38.2107 21.8088 39.7272 21.2436 41.1826 20.7783C41.5532 22.4414 41.8804 24.2117 42.1557 26.0794C41.3646 25.5148 40.56 24.9609 39.7419 24.4203C38.7137 23.7409 37.6808 23.0925 36.646 22.4745ZM47.1472 35.8561C48.4496 37.0588 49.674 38.2853 50.8102 39.5255C49.689 40.79 48.4738 42.0428 47.1768 43.2725C47.2094 42.1895 47.2268 41.0983 47.2268 40C47.2268 38.6064 47.1995 37.2241 47.1472 35.8561ZM31.645 4.6875C34.6075 4.6875 37.7543 9.00047 40.0037 16.2964C37.2936 17.1681 34.4842 18.3239 31.645 19.7367C28.8059 18.3239 25.9965 17.1683 23.2864 16.2964C25.5357 9.00047 28.6826 4.6875 31.645 4.6875ZM5.23031 22.208C6.25861 20.1697 8.90348 19.0823 12.6483 19.0823C14.2788 19.0823 16.1197 19.2908 18.1246 19.7144C17.4415 22.7986 16.9195 26.1158 16.5722 29.587C14.0577 31.6717 11.7465 33.8592 9.69327 36.0948C9.32629 35.5981 8.97393 35.1012 8.63931 34.6047C5.12751 29.3933 3.88501 24.8748 5.23031 22.208ZM12.0366 60.6461C8.29281 60.6458 5.64671 59.5584 4.61855 57.5205C3.27325 54.8536 4.51575 50.3352 8.02741 45.1237C8.52777 44.3811 9.06554 43.6377 9.63743 42.8955C11.6674 45.1795 13.9715 47.42 16.4906 49.5594C16.8223 53.1947 17.343 56.672 18.0391 59.8995C15.8289 60.4012 13.809 60.6463 12.0366 60.6461ZM31.645 75.3125C28.6251 75.3125 25.414 70.8297 23.157 63.2748C25.9128 62.358 28.7664 61.1506 31.645 59.6831C34.5236 61.1506 37.3773 62.358 40.1331 63.2748C37.8761 70.8297 34.665 75.3125 31.645 75.3125ZM58.6715 57.5205C57.1567 60.5236 52.131 61.4613 45.2509 59.8995C45.9471 56.672 46.4677 53.1947 46.7993 49.5594C49.3186 47.42 51.6227 45.1795 53.6525 42.8955C54.2244 43.6377 54.7622 44.3812 55.2626 45.1237C58.7745 50.3352 60.017 54.8536 58.6715 57.5205Z" fill="#FF453C"/>
<path d="M31.6451 47.2422C35.1398 47.2422 37.9729 43.9998 37.9729 40C37.9729 36.0003 35.1398 32.7578 31.6451 32.7578C28.1503 32.7578 25.3172 36.0003 25.3172 40C25.3172 43.9998 28.1503 47.2422 31.6451 47.2422Z" fill="#FF453C"/>
</svg>
