<svg width="80" height="80" viewBox="0 0 80 80" fill="none" xmlns="http://www.w3.org/2000/svg">
<g clip-path="url(#clip0_50_6)">
<path d="M67.0321 80C68.0048 80 68.7936 79.2113 68.7936 78.2385V24.0146H48.5392C45.6026 24.0146 43.2137 21.6241 43.2137 18.6856V0H12.9682C11.9955 0 11.2068 0.788742 11.2068 1.76146V78.2385C11.2068 79.2113 11.9955 80 12.9682 80H67.0321ZM20.7034 34.3003H59.7362V65.6151H20.7034V34.3003ZM41.7853 56.351H56.6043V62.4837H41.7853V56.351ZM23.8349 46.6959H38.6538V53.2196H23.8349V46.6959ZM23.8349 56.351H38.6538V62.4837H23.8349V56.351ZM41.7853 37.4318H56.6043V43.5644H41.7853V37.4318ZM41.7853 46.6959H56.6043V53.2196H41.7853V46.6959ZM23.8349 37.4318H38.6538V43.5644H23.8349V37.4318ZM47.1276 18.6856V4.06936L64.2737 20.1002H48.5392C47.7606 20.1002 47.1276 19.4657 47.1276 18.6856Z" fill="#FF453C"/>
</g>
<defs>
<clipPath id="clip0_50_6">
<rect width="80" height="80" fill="white"/>
</clipPath>
</defs>
</svg>
