<svg width="512" height="512" viewBox="0 0 512 512" fill="none" xmlns="http://www.w3.org/2000/svg">
<path d="M173.5 268.8L256 186.3L338.5 268.8C348.3 278.6 364.1 278.6 373.9 268.8C383.7 259 383.7 243.2 373.9 233.4L273.7 133.2C263.9 123.4 248.1 123.4 238.3 133.2L138.1 233.4C128.3 243.2 128.3 259 138.1 268.8C147.9 278.5 163.7 278.5 173.5 268.8ZM138.1 343.4L238.3 243.2C248.1 233.4 263.9 233.4 273.7 243.2L373.9 343.4C383.7 353.2 383.7 369 373.9 378.8C364.1 388.6 348.3 388.6 338.5 378.8L256 296.3L173.5 378.8C163.7 388.6 147.9 388.6 138.1 378.8C128.4 369 128.4 353.2 138.1 343.4Z" fill="black"/>
</svg>
