<svg width="76" height="80" viewBox="0 0 76 80" fill="none" xmlns="http://www.w3.org/2000/svg">
<path fill-rule="evenodd" clip-rule="evenodd" d="M72.9142 8.46132L57.3502 0.494884C56.7722 0.198828 56.143 0.0330849 55.502 0.00804728L55.3433 0H55.2072C53.9839 0.0199142 52.8158 0.545042 51.9493 1.46454L22.1819 30.3771L9.21065 19.904C8.62595 19.4285 7.90282 19.1868 7.16771 19.2214C6.4326 19.256 5.73229 19.5645 5.18926 20.0931L1.02803 24.1206C0.705398 24.4325 0.447358 24.8125 0.270358 25.2365C0.0933587 25.6605 0.00128267 26.119 0 26.583V26.5991C0 27.5043 0.340156 28.4136 1.02803 29.0775L12.2758 40.0012L1.02803 50.9249C0.704646 51.2396 0.446451 51.6226 0.269919 52.0495C0.0933862 52.4764 0.00239453 52.9378 0.00275017 53.4042C0.00310581 53.8706 0.0948008 54.3318 0.271984 54.7584C0.449167 55.185 0.707946 55.5676 1.0318 55.8818L5.19304 59.9092C5.73562 60.4403 6.43687 60.7505 7.17324 60.7851C7.9096 60.8197 8.6338 60.5765 9.21821 60.0983L22.1895 49.6253L51.9569 78.5378C52.7316 79.3625 53.7533 79.8722 54.8444 79.9782L54.8898 79.9822C54.9578 79.9903 55.0296 79.9903 55.0976 79.9943C55.1921 79.9983 55.2866 80.0023 55.3811 79.9983L55.4831 79.9943C56.1219 79.9702 56.7568 79.8133 57.3578 79.5034L72.9218 71.537C74.5507 70.7042 75.5901 68.9419 75.5901 67.0106V12.9917C75.5901 11.0565 74.5507 9.2982 72.9142 8.46132ZM56.6699 58.2274L34.0987 39.9972L56.6699 21.7669V58.2274Z" fill="#FF453C"/>
</svg>
